<svg width="120" height="120" viewBox="0 0 120 120" fill="none" xmlns="http://www.w3.org/2000/svg">
<path d="M119.303 0.676178C118.663 0.0443041 117.716 -0.166633 116.869 0.136648L19.5206 34.8468C16.1385 32.7787 11.8488 32.2945 7.91431 33.9236C1.38344 36.629 -1.7293 44.1433 0.975865 50.6746C7.35533 66.0749 16.566 79.8601 28.353 91.647C40.14 103.434 53.925 112.645 69.3256 119.024C70.9249 119.686 72.5827 120 74.2149 120C79.2481 120 84.0338 117.017 86.0764 112.085C87.4508 108.767 87.3209 105.196 86.0063 102.129L119.874 3.10266C120.165 2.25141 119.943 1.30829 119.303 0.676178ZM34.2604 34.5677L44.5776 30.8894C45.7889 32.1799 46.3793 33.9564 46.1428 35.7531C45.9342 37.3352 45.1223 38.7416 43.8565 39.7131C42.5906 40.6846 41.0231 41.1044 39.4399 40.8965C37.8581 40.6881 36.4519 39.8765 35.4804 38.6104C34.5853 37.4439 34.1594 36.0208 34.2604 34.5677ZM81.7456 110.291C80.0295 114.435 75.2618 116.409 71.1195 114.693C41.1101 102.263 17.7375 78.8898 5.30689 48.8805C4.47556 46.8735 4.47556 44.6631 5.30689 42.6559C6.13822 40.649 7.70127 39.0859 9.70822 38.2546C11.7152 37.4233 13.9258 37.4233 15.9328 38.2546C17.9397 39.0859 19.5028 40.649 20.3341 42.6559C25.6547 55.5013 33.3375 66.9992 43.1691 76.8308C53.0006 86.6623 64.4986 94.3449 77.344 99.6657C81.4873 101.382 83.4619 106.148 81.7456 110.291ZM102.568 39.2177C102.356 39.2125 102.144 39.2003 101.932 39.1727C100.35 38.9643 98.9438 38.1524 97.9726 36.8866C97.0011 35.6207 96.5808 34.052 96.789 32.4703C97.2191 29.2045 100.225 26.8978 103.492 27.3271C104.5 27.4598 105.446 27.8507 106.253 28.4453L102.568 39.2177ZM107.811 23.8882C106.669 23.2664 105.414 22.8522 104.104 22.6797C98.2744 21.9103 92.9089 26.0299 92.1415 31.8585C91.7698 34.6818 92.5198 37.4809 94.2535 39.7403C95.9234 41.9165 98.3141 43.3382 101.011 43.7718L96.3523 57.3934L90.995 53.2825C89.9682 52.495 88.4965 52.6881 87.7088 53.7151C86.9208 54.7422 87.1147 56.2133 88.1415 57.0013L94.752 62.0736L82.6362 97.5005C81.62 96.6169 80.4497 95.8777 79.1389 95.3347C54.2998 85.0458 34.9544 65.7006 24.6661 40.862C24.3084 39.9981 23.864 39.1961 23.3514 38.4574L29.6278 36.2195C29.8469 38.1105 30.5728 39.9142 31.7618 41.4637C33.4952 43.723 36.0051 45.1719 38.8284 45.5434C39.3014 45.6058 39.773 45.6367 40.2422 45.6367C42.5737 45.6367 44.8294 44.875 46.7102 43.4319C48.9698 41.698 50.4185 39.1886 50.7905 36.3649C51.124 33.8301 50.5324 31.3195 49.2042 29.2396L78.3387 18.8517L79.4428 21.5175C79.8169 22.42 80.6895 22.965 81.6092 22.965C81.908 22.965 82.2118 22.9073 82.5052 22.7859C83.701 22.2907 84.2689 20.9193 83.7736 19.7236L82.7597 17.2755L113.866 6.18445L107.811 23.8882Z" fill="#FF9F0D"/>
<path d="M25.6822 63.1682C25.6751 63.1571 25.6556 63.1272 25.648 63.1164C24.9271 62.0349 23.468 61.7446 22.3862 62.4648C21.3062 63.1839 21.0133 64.6436 21.7281 65.7255C22.179 66.4182 22.9333 66.7961 23.704 66.7961C24.14 66.7961 24.581 66.6751 24.9747 66.422C26.0685 65.7187 26.3852 64.2619 25.6822 63.1682Z" fill="#FF9F0D"/>
<path d="M22.1017 57.3187C19.8073 53.2957 17.7448 49.0852 15.9716 44.8047C15.4741 43.6029 14.0961 43.0331 12.8955 43.5307C11.694 44.0282 11.1238 45.4056 11.6215 46.6069C13.4698 51.0691 15.6199 55.4581 18.0115 59.6517C18.4459 60.4131 19.2408 60.8403 20.0587 60.8403C20.4543 60.8403 20.8553 60.7404 21.223 60.5306C22.3525 59.8862 22.7461 58.4482 22.1017 57.3187Z" fill="#FF9F0D"/>
<path d="M73.933 30.1358C73.4664 30.0741 72.9924 30.043 72.5244 30.043C67.1757 30.043 62.6151 34.047 61.9163 39.3567C61.1455 45.2121 65.2816 50.6032 71.1366 51.3741C71.6033 51.4358 72.0773 51.4668 72.5453 51.4668C77.8937 51.4668 82.4543 47.4628 83.1533 42.1527C83.924 36.2976 79.7879 30.9067 73.933 30.1358ZM78.4849 41.5382C78.0931 44.5137 75.5397 46.7574 72.5453 46.7574C72.2821 46.7574 72.0149 46.74 71.7514 46.7051C68.4705 46.2731 66.1532 43.2523 66.585 39.9712C66.9768 36.9959 69.53 34.7525 72.5244 34.7525C72.7876 34.7525 73.0548 34.7699 73.3183 34.8047C76.599 35.237 78.9167 38.2575 78.4849 41.5382Z" fill="#FF9F0D"/>
<path d="M73.3201 59.4239C72.8532 59.3622 72.3795 59.3311 71.9115 59.3311C66.5628 59.3311 62.0023 63.3351 61.3034 68.645C60.9298 71.4816 61.6832 74.2934 63.4248 76.5635C65.1662 78.8333 67.6873 80.2889 70.5238 80.6626C70.9902 80.7241 71.4639 80.7549 71.9317 80.7549C77.2803 80.7549 81.8412 76.7509 82.5402 71.4408C83.3113 65.5859 79.175 60.1953 73.3201 59.4239ZM77.872 70.8265C77.4802 73.802 74.9266 76.0457 71.9322 76.0457C71.6692 76.0457 71.402 76.0281 71.1387 75.9934C69.5495 75.7839 68.1368 74.9683 67.1609 73.6965C66.1849 72.4248 65.7628 70.8491 65.9721 69.2595C66.3639 66.2843 68.9173 64.0406 71.9115 64.0406C72.1747 64.0406 72.4419 64.058 72.7054 64.0928C75.9859 64.5249 78.3036 67.5456 77.872 70.8265Z" fill="#FF9F0D"/>
<path d="M57.7914 49.6693L50.5547 48.7164C49.2661 48.5452 48.0827 49.4541 47.913 50.7432C47.743 52.0326 48.6506 53.2153 49.9397 53.3851L57.1764 54.338C57.2807 54.3519 57.3843 54.3585 57.4867 54.3585C58.65 54.3585 59.662 53.496 59.8178 52.3112C59.9881 51.022 59.0807 49.8391 57.7914 49.6693Z" fill="#FF9F0D"/>
<path d="M54.1217 67.0455L53.4827 62.1894C53.313 60.9 52.1306 59.9921 50.8413 60.1623C49.552 60.3321 48.6445 61.5146 48.8143 62.8039L49.4535 67.6601C49.6094 68.8451 50.6211 69.7076 51.7847 69.7076C51.8871 69.7076 51.9907 69.701 52.0948 69.6871C53.3841 69.5174 54.2915 68.3349 54.1217 67.0455Z" fill="#FF9F0D"/>
</svg>
